<mxfile host="app.diagrams.net" modified="2023-09-04T07:35:56.396Z" agent="Mozilla/5.0 (Windows NT 10.0; Win64; x64) AppleWebKit/537.36 (KHTML, like Gecko) Chrome/116.0.0.0 Safari/537.36" version="21.7.2" etag="pgMRJHICQeh8kWtkRwiw" type="github">
  <diagram name="페이지-1" id="EFzlVXVDAgrhB4UhT8aC">
    <mxGraphModel>
      <root>
        <mxCell id="0" />
        <mxCell id="1" parent="0" />
      </root>
    </mxGraphModel>
  </diagram>
</mxfile>
